<?xml version="1.0" encoding="UTF-8" standalone="no"?>
<!DOCTYPE svg PUBLIC "-//W3C//DTD SVG 20010904//EN"
              "http://www.w3.org/TR/2001/REC-SVG-20010904/DTD/svg10.dtd">

<svg xmlns="http://www.w3.org/2000/svg" width="8.63602mm" height="7.62002mm" viewBox="0 0 102 90">
   <path id="Auswahl" fill="none" stroke="black" stroke-width="1" d="M 102.00,90.00
           C 102.00,90.00 25.00,90.00 25.00,90.00
             25.00,90.00 8.00,90.00 8.00,90.00
             6.05,89.96 3.37,90.10 2.02,88.40
             0.77,86.81 1.00,82.99 1.00,81.00
             1.00,81.00 1.00,47.00 1.00,47.00
             1.01,40.28 1.41,37.41 3.70,31.00
             9.54,14.66 22.99,4.12 40.00,1.15
             40.00,1.15 65.00,1.15 65.00,1.15
             65.00,1.15 102.00,1.15 102.00,1.15
             102.00,1.15 102.00,90.00 102.00,90.00 Z" />
</svg>
